<svg width="512" height="512" viewBox="0 0 512 512" fill="none" xmlns="http://www.w3.org/2000/svg">
  <rect x="50" y="86" width="412" height="356" rx="78" fill="#79C9F6"/>
  <rect x="84" y="119" width="344" height="260" rx="52" fill="#DCEFFF" stroke="#0B0B0B" stroke-width="18"/>
  <circle cx="174" cy="231" r="34" fill="#0B0B0B"/>
  <circle cx="174" cy="231" r="20" fill="#79C9F6"/>
  <circle cx="338" cy="231" r="34" fill="#0B0B0B"/>
  <circle cx="338" cy="231" r="20" fill="#79C9F6"/>
  <path d="M224 279C224 306.614 247.386 329 276 329C304.614 329 328 306.614 328 279" stroke="#0B0B0B" stroke-width="18" stroke-linecap="round"/>
  <path d="M124 267H150" stroke="#0B0B0B" stroke-width="18" stroke-linecap="round"/>
  <path d="M124 296H150" stroke="#0B0B0B" stroke-width="18" stroke-linecap="round"/>
  <path d="M362 267H388" stroke="#0B0B0B" stroke-width="18" stroke-linecap="round"/>
  <path d="M362 296H388" stroke="#0B0B0B" stroke-width="18" stroke-linecap="round"/>
  <circle cx="106" cy="229" r="34" fill="#2E5F85"/>
  <circle cx="406" cy="229" r="34" fill="#2E5F85"/>
  <path d="M256 445V464" stroke="#0B0B0B" stroke-width="18" stroke-linecap="round"/>
  <path d="M196 465H316V489C316 502.255 305.255 513 292 513H220C206.745 513 196 502.255 196 489V465Z" fill="#79C9F6" stroke="#0B0B0B" stroke-width="18"/>
  <path d="M190 102C190 75.4903 211.49 54 238 54H274C300.51 54 322 75.4903 322 102V112H190V102Z" fill="#E95E67"/>
  <path d="M210 54V18" stroke="#0B0B0B" stroke-width="18" stroke-linecap="round"/>
  <path d="M256 54V14" stroke="#0B0B0B" stroke-width="18" stroke-linecap="round"/>
  <path d="M302 54V18" stroke="#0B0B0B" stroke-width="18" stroke-linecap="round"/>
  <path d="M239 489V509" stroke="#0B0B0B" stroke-width="18" stroke-linecap="round"/>
  <path d="M273 489V509" stroke="#0B0B0B" stroke-width="18" stroke-linecap="round"/>
</svg>
